<svg width="555" height="448" viewBox="0 0 555 448" fill="none" xmlns="http://www.w3.org/2000/svg">
<path fill-rule="evenodd" clip-rule="evenodd" d="M1.78748 49.168C11.7764 31.9416 30.4276 23.9971 55.4904 22.9222C85.8381 -11.2266 126.998 -8.10814 144.322 38.2659C170.652 46.3843 194.038 55.1823 213.369 64.9158C278.641 98.5275 290.353 87.9217 319.16 106.101C345.979 100.359 388.604 127.001 410.01 141.634C439.462 135.269 495.331 159.319 533.164 168.284C538.22 170.784 541.836 175.204 543.662 182.012C542.376 199.168 530.572 229.142 522.262 244.598C550.933 241.628 566.025 276.391 542.854 294.869C524.47 339.3 507.585 357.323 476.231 391.575C464.315 405.083 427.912 399.137 405.973 402.88C386.265 409.793 367.341 441.005 358.58 432.598C347.596 422.38 377.409 407.171 386.995 393.593L367.614 386.123C344.306 376.81 327.071 380.273 290.693 367.55C277.335 367.138 266.674 376.106 263.685 363.052C258.695 340.342 326.342 362.738 338.138 364.319C337.083 362.587 329.706 360.812 326.599 357.669C321.328 352.337 324.11 347.095 331.426 348.017C344.345 352.794 348.986 370.051 386.995 367.043C399.413 362.947 437.888 359.462 454.225 355.536C446.824 341.812 467.19 330.85 476.635 324.646C445.623 338.883 418.339 342.818 385.38 348.469C345.356 368.801 328.55 314.577 347.626 282.652C333.545 284.786 287.342 275.259 273.936 269.731L264.447 267.309C268.014 273.096 271.581 278.884 275.147 284.671C290.367 312.262 269.215 318.312 261.823 350.69C251.048 373.211 227.759 396.781 222.453 411.459C223.28 418.007 225.867 423.822 229.924 429.023C236.117 429.959 242.103 431.79 247.892 434.474C256.938 437.889 262.437 447.131 252.738 447.395C246.966 442.545 240.809 440.468 235.577 439.925C225.882 440.857 216.749 431.11 212.561 423.37C211.224 433.034 197.263 436.382 190.857 426.802C183.275 430.628 171.973 431.943 166.327 432.959C158.383 444.508 148.67 430.35 134.024 437.906C129.347 440.539 124.67 441.734 119.993 441.136C107.395 432.258 126.623 425.918 129.886 424.077L114.946 419.332L94.6561 413.073C85.216 411.009 79.8393 418.328 75.1734 407.925C75.4679 396.493 89.3538 395.249 94.4539 401.162C112.653 403.855 125.614 411.678 145.129 414.083C157.595 410.866 175.292 405.179 184.498 395.711C188.237 384.136 194.218 372.561 202.264 360.985C222.485 322.238 246.894 303.44 228.914 285.074C210.027 265.149 192.822 246.897 172.384 228.545C169.06 234.736 168.442 240.927 169.962 247.118C174.11 255.973 187.703 261.611 197.015 262.059C203.015 264.44 216.364 274.623 209.129 281.44C203.079 281.36 197.143 280.04 191.362 276.999C179.83 271.427 166.631 271.05 158.454 262.463C143.935 278.97 161.261 294.302 148.158 296.279C132.513 301.241 137.396 277.692 136.044 270.134C133.512 270.428 131.713 269.438 130.795 266.904C118.192 273.333 79.8585 270.161 61.3441 274.373C56.4946 280.215 48.6268 278.209 44.3854 272.758C44.3423 250.296 73.9167 267.133 95.8679 257.818C109.129 242.734 58.5371 252.86 62.9591 231.977C69.6867 220.648 95.8694 236.626 105.76 239.648C129.889 236.135 137.935 226.295 144.927 204.115C141.924 191.795 129.003 176.979 117.873 170.803C99.6825 173.765 85.1053 162.752 73.4575 150.008C55.4031 139.78 39.6239 125.38 24.801 109.227C7.65406 102.275 -4.78814 62.9383 1.78748 49.168Z" fill="white"/>
</svg>
